<svg width="42" height="42" fill="none" xmlns="http://www.w3.org/2000/svg"><path d="M21 14.7a6.3 6.3 0 100 12.6 6.3 6.3 0 000-12.6zm0-4.2a10.5 10.5 0 110 21 10.5 10.5 0 010-21zm13.65-.525a2.625 2.625 0 11-5.25 0 2.625 2.625 0 015.25 0zM21 4.2c-5.195 0-6.044.015-8.46.122-1.647.077-2.752.298-3.777.697-.911.353-1.568.775-2.268 1.476a6.069 6.069 0 00-1.478 2.268c-.4 1.03-.62 2.132-.695 3.776C4.212 14.858 4.2 15.67 4.2 21c0 5.195.015 6.044.122 8.46.077 1.645.298 2.752.695 3.775.357.913.777 1.57 1.474 2.268a6.092 6.092 0 002.268 1.476c1.037.401 2.142.624 3.78.7 2.319.108 3.13.121 8.461.121 5.195 0 6.044-.015 8.46-.122 1.643-.078 2.75-.298 3.775-.695.909-.355 1.57-.777 2.268-1.474a6.072 6.072 0 001.478-2.268c.399-1.035.622-2.142.697-3.78.11-2.319.122-3.13.122-8.461 0-5.195-.015-6.044-.122-8.46-.078-1.643-.298-2.752-.697-3.777a6.113 6.113 0 00-1.476-2.268 6.057 6.057 0 00-2.268-1.478c-1.03-.4-2.134-.62-3.776-.695C27.142 4.212 26.33 4.2 21 4.2zM21 0c5.706 0 6.418.021 8.656.126 2.237.105 3.76.456 5.099.977 1.386.533 2.554 1.255 3.721 2.42a10.307 10.307 0 012.422 3.722c.518 1.338.871 2.862.976 5.099.099 2.238.126 2.95.126 8.656s-.021 6.418-.126 8.656c-.105 2.237-.458 3.76-.977 5.099a10.254 10.254 0 01-2.42 3.721 10.321 10.321 0 01-3.722 2.422c-1.338.518-2.862.871-5.099.976-2.238.099-2.95.126-8.656.126s-6.418-.021-8.656-.126c-2.237-.105-3.76-.458-5.099-.977a10.269 10.269 0 01-3.721-2.42 10.298 10.298 0 01-2.421-3.722C.582 33.417.23 31.893.126 29.656.027 27.418 0 26.706 0 21s.021-6.418.126-8.656c.105-2.239.456-3.76.977-5.099a10.248 10.248 0 012.42-3.721 10.284 10.284 0 013.722-2.421c1.34-.521 2.86-.872 5.099-.977C14.582.027 15.294 0 21 0z" fill="#30444E"/></svg>