<svg width="42" height="34" fill="none" xmlns="http://www.w3.org/2000/svg"><path d="M29.115 4.087c-1.592 0-3.12.61-4.255 1.697a5.854 5.854 0 00-1.817 4.118l-.06 3.217a1.2 1.2 0 01-.438.907 1.265 1.265 0 01-.985.284l-3.268-.433C13.99 13.305 9.87 11.373 5.917 8.16c-1.252 6.76 1.194 11.444 7.084 15.057l3.658 2.242c.173.107.318.253.42.427a1.205 1.205 0 01-.35 1.602l-3.333 2.375c1.983.12 3.866.035 5.427-.268 9.88-1.924 16.447-9.174 16.447-21.135 0-.976-2.119-4.373-6.155-4.373zm-10.26 5.74a9.84 9.84 0 011.814-5.504A10.219 10.219 0 0125.302.716 10.501 10.501 0 0131.206.21a10.338 10.338 0 015.206 2.764c1.488-.01 2.755.358 5.588-1.317-.701 3.35-1.047 4.804-2.542 6.803 0 15.608-9.835 23.198-19.814 25.14C12.802 34.932 2.852 32.745 0 29.84c1.453-.11 7.358-.729 10.77-3.165C7.884 24.818-3.61 18.22 3.944.485c3.545 4.038 7.14 6.787 10.783 8.245 2.425.97 3.02.95 4.131 1.099l-.002-.002z" fill="#30444E"/></svg>