<svg width="42" height="42" viewBox="0 0 42 42" fill="none" xmlns="http://www.w3.org/2000/svg">
<path d="M23.1 37.6698C27.3363 37.1308 31.2084 34.9989 33.9293 31.7074C36.6502 28.416 38.0157 24.212 37.7483 19.9499C37.4809 15.6879 35.6006 11.6875 32.4896 8.762C29.3787 5.83647 25.2705 4.20529 21 4.2C16.7243 4.19682 12.6083 5.82401 9.49061 8.75002C6.37293 11.676 4.4882 15.6807 4.22046 19.948C3.95272 24.2153 5.32211 28.4241 8.0496 31.7169C10.7771 35.0096 14.6574 37.1385 18.9 37.6698V25.2H14.7V21H18.9V17.5266C18.9 14.7189 19.194 13.7004 19.74 12.6735C20.2778 11.6575 21.1091 10.8269 22.1256 10.29C22.9278 9.8595 23.9253 9.6012 25.6683 9.4899C26.3592 9.4458 27.2538 9.5004 28.3521 9.6579V13.6479H27.3C25.3743 13.6479 24.5784 13.7382 24.1038 13.9923C23.8206 14.1379 23.59 14.3685 23.4444 14.6517C23.1924 15.1263 23.1 15.5967 23.1 17.5245V21H28.35L27.3 25.2H23.1V37.6698ZM21 42C9.4017 42 0 32.5983 0 21C0 9.4017 9.4017 0 21 0C32.5983 0 42 9.4017 42 21C42 32.5983 32.5983 42 21 42Z" fill="#30444E"/>
</svg>
