<svg width="42" height="42" viewBox="0 0 42 42" fill="none" xmlns="http://www.w3.org/2000/svg">
<path d="M21 14.7C19.3291 14.7 17.7267 15.3637 16.5452 16.5452C15.3637 17.7267 14.7 19.3291 14.7 21C14.7 22.6709 15.3637 24.2733 16.5452 25.4548C17.7267 26.6363 19.3291 27.3 21 27.3C22.6709 27.3 24.2733 26.6363 25.4548 25.4548C26.6363 24.2733 27.3 22.6709 27.3 21C27.3 19.3291 26.6363 17.7267 25.4548 16.5452C24.2733 15.3637 22.6709 14.7 21 14.7ZM21 10.5C23.7848 10.5 26.4555 11.6062 28.4246 13.5754C30.3938 15.5445 31.5 18.2152 31.5 21C31.5 23.7848 30.3938 26.4555 28.4246 28.4246C26.4555 30.3938 23.7848 31.5 21 31.5C18.2152 31.5 15.5445 30.3938 13.5754 28.4246C11.6062 26.4555 10.5 23.7848 10.5 21C10.5 18.2152 11.6062 15.5445 13.5754 13.5754C15.5445 11.6062 18.2152 10.5 21 10.5ZM34.65 9.975C34.65 10.6712 34.3734 11.3389 33.8812 11.8312C33.3889 12.3234 32.7212 12.6 32.025 12.6C31.3288 12.6 30.6611 12.3234 30.1688 11.8312C29.6766 11.3389 29.4 10.6712 29.4 9.975C29.4 9.27881 29.6766 8.61113 30.1688 8.11884C30.6611 7.62656 31.3288 7.35 32.025 7.35C32.7212 7.35 33.3889 7.62656 33.8812 8.11884C34.3734 8.61113 34.65 9.27881 34.65 9.975ZM21 4.2C15.8046 4.2 14.9562 4.2147 12.5391 4.3218C10.8927 4.3995 9.7881 4.62 8.7633 5.019C7.8519 5.3718 7.1946 5.7939 6.4953 6.4953C5.83801 7.13034 5.33264 7.90563 5.0169 8.7633C4.6179 9.7923 4.3974 10.8948 4.3218 12.5391C4.2126 14.8575 4.2 15.6681 4.2 21C4.2 26.1954 4.2147 27.0438 4.3218 29.4609C4.3995 31.1052 4.62 32.2119 5.0169 33.2346C5.3739 34.1481 5.7939 34.8054 6.4911 35.5026C7.1988 36.2082 7.8561 36.6303 8.7591 36.9789C9.7965 37.38 10.9011 37.6026 12.5391 37.6782C14.8575 37.7874 15.6681 37.8 21 37.8C26.1954 37.8 27.0438 37.7853 29.4609 37.6782C31.1031 37.6005 32.2098 37.38 33.2346 36.9831C34.1439 36.6282 34.8054 36.2061 35.5026 35.5089C36.2103 34.8012 36.6324 34.1439 36.981 33.2409C37.38 32.2056 37.6026 31.0989 37.6782 29.4609C37.7874 27.1425 37.8 26.3319 37.8 21C37.8 15.8046 37.7853 14.9562 37.6782 12.5391C37.6005 10.8969 37.38 9.7881 36.981 8.7633C36.6645 7.9065 36.1601 7.13152 35.5047 6.4953C34.8699 5.83768 34.0946 5.33225 33.2367 5.0169C32.2077 4.6179 31.1031 4.3974 29.4609 4.3218C27.1425 4.2126 26.3319 4.2 21 4.2ZM21 0C26.7057 0 27.4176 0.0209999 29.6562 0.126C31.8927 0.231 33.4152 0.5817 34.755 1.1025C36.141 1.6359 37.3086 2.3583 38.4762 3.5238C39.544 4.57358 40.3703 5.84344 40.8975 7.245C41.4162 8.5827 41.769 10.1073 41.874 12.3438C41.9727 14.5824 42 15.2943 42 21C42 26.7057 41.979 27.4176 41.874 29.6562C41.769 31.8927 41.4162 33.4152 40.8975 34.755C40.3718 36.1573 39.5454 37.4275 38.4762 38.4762C37.4261 39.5437 36.1563 40.3699 34.755 40.8975C33.4173 41.4162 31.8927 41.769 29.6562 41.874C27.4176 41.9727 26.7057 42 21 42C15.2943 42 14.5824 41.979 12.3438 41.874C10.1073 41.769 8.5848 41.4162 7.245 40.8975C5.84288 40.3714 4.57281 39.545 3.5238 38.4762C2.45575 37.4266 1.62946 36.1567 1.1025 34.755C0.5817 33.4173 0.231 31.8927 0.126 29.6562C0.0272999 27.4176 0 26.7057 0 21C0 15.2943 0.0209999 14.5824 0.126 12.3438C0.231 10.1052 0.5817 8.5848 1.1025 7.245C1.628 5.84258 2.45449 4.57237 3.5238 3.5238C4.57311 2.45539 5.8431 1.62903 7.245 1.1025C8.5848 0.5817 10.1052 0.231 12.3438 0.126C14.5824 0.0272999 15.2943 0 21 0Z" fill="#30444E"/>
</svg>
