<svg width="42" height="42" viewBox="0 0 42 42" fill="none" xmlns="http://www.w3.org/2000/svg">
<path d="M21 42C9.4017 42 0 32.5983 0 21C0 9.4017 9.4017 0 21 0C32.5983 0 42 9.4017 42 21C42 32.5983 32.5983 42 21 42ZM21 37.8C25.4556 37.8 29.7288 36.03 32.8794 32.8794C36.03 29.7288 37.8 25.4556 37.8 21C37.8 16.5444 36.03 12.2712 32.8794 9.12061C29.7288 5.97 25.4556 4.2 21 4.2C16.5444 4.2 12.2712 5.97 9.12061 9.12061C5.97 12.2712 4.2 16.5444 4.2 21C4.2 25.4556 5.97 29.7288 9.12061 32.8794C12.2712 36.03 16.5444 37.8 21 37.8ZM10.5 27.972C15.0256 27.6468 19.2816 25.6982 22.4847 22.4847C25.6982 19.2816 27.6468 15.0256 27.972 10.5C29.5237 11.5338 30.8266 12.899 31.7868 14.4973C32.7469 16.0956 33.3404 17.8871 33.5244 19.7425C33.7084 21.5979 33.4784 23.471 32.8508 25.2268C32.2233 26.9825 31.2139 28.5771 29.8955 29.8955C28.5771 31.2139 26.9825 32.2233 25.2268 32.8508C23.471 33.4784 21.5979 33.7084 19.7425 33.5244C17.8871 33.3404 16.0956 32.7469 14.4973 31.7868C12.899 30.8266 11.5338 29.5237 10.5 27.972Z" fill="#30444E"/>
</svg>
