<svg width="42" height="34" viewBox="0 0 42 34" fill="none" xmlns="http://www.w3.org/2000/svg">
<path d="M29.1146 4.08748C27.5232 4.08722 25.9954 4.69637 24.8598 5.78385C23.7242 6.87133 23.0716 8.35022 23.0425 9.90227L22.9839 13.1191C22.9805 13.2918 22.9396 13.4619 22.8641 13.6181C22.7885 13.7743 22.68 13.9132 22.5455 14.0257C22.4111 14.1381 22.2538 14.2216 22.084 14.2705C21.9141 14.3195 21.7356 14.3329 21.5601 14.3098L18.2916 13.8768C13.9909 13.305 9.87028 11.3728 5.91714 8.16008C4.66504 14.9205 7.11062 19.6038 13.0005 23.2169L16.6585 25.4594C16.8323 25.566 16.9766 25.7124 17.079 25.886C17.1813 26.0596 17.2385 26.255 17.2456 26.4551C17.2526 26.6552 17.2092 26.8539 17.1193 27.0339C17.0294 27.2139 16.8956 27.3697 16.7296 27.4876L13.3963 29.8629C15.3791 29.9834 17.2615 29.8976 18.8235 29.5953C28.7021 27.6714 35.2705 20.4208 35.2705 8.46032C35.2705 7.48404 33.1515 4.08748 29.1146 4.08748ZM18.8549 9.8267C18.8914 7.8579 19.5226 5.94337 20.6693 4.32281C21.816 2.70225 23.4274 1.44768 25.3016 0.716184C27.1758 -0.0153169 29.2296 -0.191241 31.2058 0.210439C33.182 0.612118 34.9929 1.57355 36.4116 2.97436C37.9003 2.96415 39.1671 3.33178 42 1.65699C41.2986 5.00657 40.9531 6.46078 39.4581 8.46032C39.4581 24.0685 29.6234 31.6582 19.6442 33.6005C12.8016 34.9322 2.85179 32.7448 0 29.8404C1.45311 29.7302 7.35769 29.1113 10.7706 26.6747C7.88324 24.8181 -3.60975 18.2211 3.94267 0.48464C7.48751 4.52252 11.0826 7.27162 14.7259 8.72992C17.1505 9.70007 17.7452 9.67965 18.857 9.82874L18.8549 9.8267Z" fill="#30444E"/>
</svg>
